PathFileType	4	(X/Y/Z)	/Users/itak/Documents/Research/Walk-IL/dataset/trc/00356_00011.trc
DataRate	CameraRate	NumFrames	NumMarkers	Units	OrigDataRate	OrigDataStartFrame	OrigNumFrames
100.000000	100.000000	4	54	mm	100.000000	0	729
Frame#	Time	RPSI			LPSI			STRN			T10			C7			CLAV			RBAK			LBAK			LSHO			LUPA			LAEL			LAOL			LWTS			LWPS			LFRA			LIFD			LHPS			LHTS			RSHO			RUPA			RAEL			RAOL			RWTS			RWPS			RFRA			RIFD			RHTS			RHPS			RBHD			LFHD			RFHD			LBHD			LHIP			RHIP			RASI			LASI			LKNE			LTHI			LANK			LTIP			LTOE			LMT1			LMT5			LHEE			RKNE			RANK			RTIP			RTOE			RMT1			RMT5			RHEE			L3			RTHI			*53			
		X1	Y1	Z1	X2	Y2	Z2	X3	Y3	Z3	X4	Y4	Z4	X5	Y5	Z5	X6	Y6	Z6	X7	Y7	Z7	X8	Y8	Z8	X9	Y9	Z9	X10	Y10	Z10	X11	Y11	Z11	X12	Y12	Z12	X13	Y13	Z13	X14	Y14	Z14	X15	Y15	Z15	X16	Y16	Z16	X17	Y17	Z17	X18	Y18	Z18	X19	Y19	Z19	X20	Y20	Z20	X21	Y21	Z21	X22	Y22	Z22	X23	Y23	Z23	X24	Y24	Z24	X25	Y25	Z25	X26	Y26	Z26	X27	Y27	Z27	X28	Y28	Z28	X29	Y29	Z29	X30	Y30	Z30	X31	Y31	Z31	X32	Y32	Z32	X33	Y33	Z33	X34	Y34	Z34	X35	Y35	Z35	X36	Y36	Z36	X37	Y37	Z37	X38	Y38	Z38	X39	Y39	Z39	X40	Y40	Z40	X41	Y41	Z41	X42	Y42	Z42	X43	Y43	Z43	X44	Y44	Z44	X45	Y45	Z45	X46	Y46	Z46	X47	Y47	Z47	X48	Y48	Z48	X49	Y49	Z49	X50	Y50	Z50	X51	Y51	Z51	X52	Y52	Z52	X53	Y53	Z53	X54	Y54	Z54	

1	0	379.0001220703125	975.575927734375	843.1251220703125	373.2826232910156	974.3139038085938	970.5341796875	163.3302459716797	1227.615966796875	912.3854370117188	397.6857299804688	1143.998901367188	909.86181640625	372.8158264160156	1393.563110351562	931.4693603515625	212.6588287353516	1351.247802734375	919.42919921875	413.7301940917969	1254.551879882812	859.7742919921875	376.5795593261719	1353.018798828125	1031.8955078125	292.2345581054688	1376.921630859375	1087.375	297.7671203613281	1252.860595703125	1150.156616210938	263.7583923339844	1049.84716796875	1151.296630859375	325.8335876464844	1035.018310546875	1095.378784179688	156.0407104492188	814.5108032226562	1092.33447265625	193.0023345947266	799.2911987304688	1149.321166992188	241.6344604492188	946.6551513671875	1153.158569335938	146.7427978515625	655.079345703125	1076.373413085938	192.3134613037109	728.6805419921875	1141.175048828125	139.6206817626953	735.6886596679688	1103.755493164062	321.0768737792969	1390.08642578125	765.7119750976562	329.3387451171875	1325.604248046875	700.5607299804688	303.928466796875	1057.638671875	665.7013549804688	349.3008422851562	1048.0087890625	748.0200805664062	179.1735382080078	838.419677734375	715.8697509765625	214.1815032958984	819.1275024414062	650.6664428710938	273.6807556152344	991.9974975585938	658.7888793945312	158.3560485839844	666.6388549804688	714.2041015625	142.5174407958984	738.6927490234375	703.414306640625	193.0943908691406	735.5193481445312	655.3358764648438	352.9827880859375	1603.42236328125	851.7178344726562	177.9736938476562	1632.064575195312	962.3340454101562	192.9878387451172	1631.844970703125	862.482666015625	357.240966796875	1595.281372070312	997.1387329101562	287.7006225585938	923.2888793945312	1075.270263671875	289.4647216796875	915.7108154296875	744.279541015625	195.9761657714844	955.4381103515625	768.6004028320312	165.6318054199219	946.0469360351562	1007.944702148438	264.2501831054688	471.181640625	1079.516845703125	250.1825103759766	605.4034423828125	1082.028198242188	334.5541076660156	40.71633148193359	1086.902221679688	304.9119262695312	253.697509765625	1096.953735351562	123.110595703125	43.10787963867188	1041.626586914062	186.6099243164062	38.74034118652344	995.6892700195312	210.1279296875	39.51718902587891	1109.00927734375	359.6867980957031	39.94960021972656	1016.061828613281	281.5800170898438	465.1858215332031	715.0819091796875	330.6487731933594	46.18700790405273	705.1300048828125	277.3131408691406	348.3837890625	711.9655151367188	137.5707092285156	46.39274215698242	754.7648315429688	193.5189056396484	42.74515914916992	794.4544067382812	229.3747711181641	34.00311660766602	682.9884643554688	380.2300109863281	48.28354644775391	753.5987548828125	379.3394165039062	1025.506713867188	901.973876953125	237.4420318603516	723.4148559570312	704.874755859375	nan	nan	nan	
2	0.01	378.9451904296875	975.5799560546875	843.1142578125	373.2383117675781	974.3441772460938	970.5279541015625	163.1544799804688	1227.585815429688	912.412109375	397.5877075195312	1144.00537109375	909.8593139648438	372.6659851074219	1393.573974609375	931.4468383789062	212.517578125	1351.215209960938	919.4285278320312	413.5999755859375	1254.5673828125	859.7677001953125	376.5043029785156	1352.997192382812	1031.911376953125	292.0962524414062	1376.92626953125	1087.277099609375	297.705322265625	1252.849975585938	1150.141845703125	263.6888122558594	1049.846313476562	1151.312744140625	325.7864685058594	1035.006591796875	1095.348876953125	155.9949340820312	814.4978637695312	1092.340942382812	192.9761810302734	799.27294921875	1149.334716796875	241.6096038818359	946.6351928710938	1153.148559570312	146.7443389892578	655.0361938476562	1076.345581054688	192.2288055419922	728.633056640625	1141.183715820312	139.5681610107422	735.7334594726562	1103.82177734375	320.8837890625	1390.098999023438	765.744384765625	329.0898742675781	1325.595947265625	700.551025390625	303.7716979980469	1057.639892578125	665.6874389648438	349.1795654296875	1048.00244140625	748.0272827148438	179.0704803466797	838.3948364257812	715.8779907226562	214.1187744140625	819.1084594726562	650.6905517578125	273.5382080078125	991.986083984375	658.7708740234375	158.3202667236328	666.632568359375	714.233154296875	142.4747619628906	738.6640625	703.4475708007812	193.0360107421875	735.51171875	655.3502807617188	352.783935546875	1603.413330078125	851.6624755859375	177.8264923095703	1632.068115234375	962.3156127929688	192.8140563964844	1631.868041992188	862.4901123046875	357.1179504394531	1595.263916015625	997.1021118164062	287.6695861816406	923.274169921875	1075.250732421875	289.4306945800781	915.7046508789062	744.2608032226562	195.9075927734375	955.431396484375	768.6246337890625	165.5528564453125	946.0092163085938	1007.978454589844	264.2513427734375	471.1777648925781	1079.517822265625	250.1920623779297	605.3980712890625	1082.03955078125	334.5493469238281	40.72430038452148	1086.899047851562	304.9143676757812	253.6976165771484	1096.951416015625	123.1078262329102	43.10883712768555	1041.628295898438	186.6157836914062	38.73295974731445	995.6878662109375	210.1328582763672	39.52264404296875	1109.009521484375	359.6874084472656	39.9469108581543	1016.060546875	281.5676879882812	465.1894836425781	715.0940551757812	330.64208984375	46.19124221801758	705.1398315429688	277.3117980957031	348.379638671875	711.9751586914062	137.5658874511719	46.39179992675781	754.7664794921875	193.5124359130859	42.73875427246094	794.4539184570312	229.3732452392578	34.00888442993164	682.9891967773438	380.2400817871094	48.28101348876953	753.6052856445312	379.2196655273438	1025.50146484375	901.9691772460938	237.3788452148438	723.380615234375	704.9370727539062	nan	nan	nan	
3	0.02	378.8646850585938	975.587646484375	843.099365234375	373.1790161132812	974.3851928710938	970.51904296875	162.9494476318359	1227.553588867188	912.4356689453125	397.4578857421875	1144.014404296875	909.8589477539062	372.4578552246094	1393.584228515625	931.41748046875	212.3472747802734	1351.1748046875	919.4306640625	413.4243469238281	1254.58056640625	859.7657470703125	376.3951110839844	1352.97998046875	1031.93359375	291.9299011230469	1376.939086914062	1087.15869140625	297.6173095703125	1252.851318359375	1150.131958007812	263.6074829101562	1049.842651367188	1151.330444335938	325.7214050292969	1034.993896484375	1095.315551757812	155.9324340820312	814.4826049804688	1092.345581054688	192.9382019042969	799.2451171875	1149.348022460938	241.57373046875	946.6076049804688	1153.133666992188	146.7342071533203	654.9912719726562	1076.3173828125	192.1378173828125	728.5936279296875	1141.20068359375	139.5012664794922	735.7646484375	1103.880126953125	320.6427001953125	1390.115478515625	765.7797241210938	328.7874755859375	1325.588623046875	700.5413208007812	303.5729064941406	1057.642333984375	665.6707153320312	349.0148620605469	1047.988525390625	748.047607421875	178.9154815673828	838.3681640625	715.8783569335938	214.0419464111328	819.0858764648438	650.7192993164062	273.3563232421875	991.9742431640625	658.7518310546875	158.2815399169922	666.6170654296875	714.2698974609375	142.4212493896484	738.6295776367188	703.4866333007812	192.965087890625	735.5023193359375	655.3629150390625	352.5343322753906	1603.412719726562	851.6031494140625	177.6260986328125	1632.08056640625	962.298828125	192.5932312011719	1631.8955078125	862.4957275390625	356.9666442871094	1595.25439453125	997.0634155273438	287.6303100585938	923.2525634765625	1075.223266601562	289.3822326660156	915.7006225585938	744.2392578125	195.8234100341797	955.4247436523438	768.6570434570312	165.4531097412109	945.9583740234375	1008.015258789062	264.2533569335938	471.1714477539062	1079.522583007812	250.2033233642578	605.3922119140625	1082.053955078125	334.5447692871094	40.73404693603516	1086.8935546875	304.9172668457031	253.6966552734375	1096.947998046875	123.1037368774414	43.11029434204102	1041.630249023438	186.622802734375	38.72158050537109	995.6824340820312	210.1375427246094	39.53089904785156	1109.007080078125	359.68701171875	39.94342422485352	1016.058288574219	281.5494995117188	465.1910400390625	715.107177734375	330.6343383789062	46.19625473022461	705.1495971679688	277.3068542480469	348.3735046386719	711.9883422851562	137.5563812255859	46.39010620117188	754.7674560546875	193.50439453125	42.73665237426758	794.4508666992188	229.369873046875	34.01696395874023	682.9918212890625	380.2516479492188	48.27477645874023	753.6101684570312	379.072265625	1025.494995117188	901.9583129882812	237.3063659667969	723.346923828125	705.001708984375	nan	nan	nan	
4	0.03	378.7568969726562	975.6011352539062	843.0818481445312	373.10400390625	974.4364013671875	970.5086669921875	162.7295684814453	1227.520263671875	912.451904296875	397.2984924316406	1144.0244140625	909.860595703125	372.1936950683594	1393.59228515625	931.3818359375	212.1565399169922	1351.128173828125	919.4365234375	413.2044067382812	1254.588500976562	859.7732543945312	376.2489318847656	1352.973876953125	1031.961547851562	291.7431945800781	1376.959228515625	1087.031860351562	297.5017395019531	1252.870727539062	1150.131713867188	263.5185546875	1049.834350585938	1151.348754882812	325.6365356445312	1034.981079101562	1095.282958984375	155.8541412353516	814.4653930664062	1092.346923828125	192.8870391845703	799.2073974609375	1149.358764648438	241.5255279541016	946.5725708007812	1153.113525390625	146.7083740234375	654.9483642578125	1076.291625976562	192.0489044189453	728.5701904296875	1141.22607421875	139.4219512939453	735.7730102539062	1103.920654296875	320.3641662597656	1390.136108398438	765.8141479492188	328.447998046875	1325.585693359375	700.5345458984375	303.3404846191406	1057.645874023438	665.652587890625	348.8102416992188	1047.965576171875	748.0848388671875	178.7112579345703	838.34130859375	715.8695678710938	213.9547576904297	819.0614624023438	650.7503051757812	273.1417846679688	991.9632568359375	658.7348022460938	158.2424774169922	666.5895385742188	714.3137817382812	142.3599700927734	738.591552734375	703.5282592773438	192.8852233886719	735.4921875	655.37158203125	352.2449645996094	1603.423095703125	851.5492553710938	177.3759460449219	1632.10302734375	962.2880859375	192.3337554931641	1631.92578125	862.4971313476562	356.7933044433594	1595.25830078125	997.0269165039062	287.5834045410156	923.224365234375	1075.188232421875	289.3194274902344	915.7013549804688	744.2161254882812	195.7277374267578	955.4185180664062	768.697021484375	165.3365631103516	945.8955078125	1008.051330566406	264.2568969726562	471.162109375	1079.532348632812	250.2154083251953	605.3860473632812	1082.06982421875	334.5407104492188	40.74517059326172	1086.885131835938	304.9197082519531	253.6943054199219	1096.942749023438	123.0982437133789	43.11215591430664	1041.632080078125	186.6295013427734	38.70639038085938	995.6737670898438	210.1414489746094	39.54218292236328	1109.001220703125	359.6851501464844	39.93925476074219	1016.055053710938	281.5243530273438	465.1895446777344	715.1196899414062	330.626220703125	46.20112609863281	705.1578369140625	277.296875	348.3650817871094	712.0049438476562	137.540771484375	46.38735580444336	754.7669677734375	193.4949188232422	42.74121856689453	794.4440307617188	229.3650207519531	34.02705383300781	682.99658203125	380.264404296875	48.26378631591797	753.6121215820312	378.9048156738281	1025.488525390625	901.9400024414062	237.230712890625	723.3192749023438	705.0599365234375	nan	nan	nan	
